<?xml version="1.0" encoding="UTF-8" standalone="no"?>
<!DOCTYPE svg PUBLIC "-//W3C//DTD SVG 1.1//EN" "http://www.w3.org/Graphics/SVG/1.1/DTD/svg11.dtd">
<svg width="100%" height="100%" viewBox="0 0 512 512" version="1.1" xmlns="http://www.w3.org/2000/svg" xmlns:xlink="http://www.w3.org/1999/xlink" xml:space="preserve" xmlns:serif="http://www.serif.com/" style="fill-rule:evenodd;clip-rule:evenodd;stroke-miterlimit:10;">
    <g id="Ebene-1" serif:id="Ebene 1" transform="matrix(1,0,0,1,6.46995,4.30025)">
        <rect id="rect1" x="-9.921" y="-7.219" width="518.135" height="518.614" style="fill:url(#_Linear1);"/>
        <g transform="matrix(2.64327,0,0,2.64327,80.3605,82.5388)">
            <path d="M70.24,100.79L118.79,105.41C123.36,105.85 124.53,103.3 124.53,101.14L124.48,98.52L64.77,90.1C64.77,93.09 67.2,100.79 70.24,100.79Z" style="fill:rgb(198,40,40);fill-rule:nonzero;"/>
            <path d="M72.01,98.51L79.65,99.18L120.56,103.13C122.76,103.13 124.53,101.38 124.53,99.22L122.36,32.96C122.36,30.8 120.58,29.05 118.39,29.05L72.01,24.67C68.97,24.67 66.5,27.1 66.5,30.09L66.5,93.09C66.5,96.08 68.96,98.51 72.01,98.51Z" style="fill:rgb(244,67,54);fill-rule:nonzero;"/>
            <path d="M57.76,100.79L9.21,105.41C4.64,105.85 3.47,103.3 3.47,101.14L3.52,98.52L63.23,90.09C63.23,93.09 60.8,100.79 57.76,100.79Z" style="fill:rgb(198,40,40);fill-rule:nonzero;"/>
            <path d="M55.99,98.51L48.41,99.18L7.44,103.14C5.24,103.14 3.47,101.39 3.47,99.23L5.64,32.97C5.64,30.81 7.42,29.06 9.61,29.06L55.99,24.68C59.03,24.68 61.5,27.11 61.5,30.1L61.5,93.1C61.5,96.08 59.04,98.51 55.99,98.51Z" style="fill:rgb(244,67,54);fill-rule:nonzero;"/>
            <path d="M78.75,83.68L49.27,83.68L48.37,99.21L57.57,100.07C57.57,100.07 59.54,104.99 64,104.99C68.46,104.99 70.43,100.07 70.43,100.07L79.63,99.21L78.75,83.68Z" style="fill:rgb(66,66,66);fill-rule:nonzero;"/>
            <g>
                <path d="M79.54,100.43L70.97,99.69" style="fill:none;fill-rule:nonzero;stroke:rgb(97,97,97);stroke-width:2.5px;"/>
            </g>
            <g>
                <path d="M48.46,100.43L57.03,99.69" style="fill:none;fill-rule:nonzero;stroke:rgb(97,97,97);stroke-width:2.5px;"/>
            </g>
            <path d="M119.65,32.82L115.65,27.32L64,86.02L12.35,27.32L8.35,32.82L7.79,98.17C7.79,98.17 18.41,99.5 32.6,98.06C44.96,96.81 50.78,93.61 54.91,94.44C59.87,95.44 60.77,98.49 60.93,99.01C61.38,100.45 62.27,101.57 64,101.57C65.73,101.57 66.5,100.97 67.03,99.19C67.19,98.67 68.13,95.45 73.09,94.45C77.22,93.62 83.04,96.82 95.4,98.07C109.59,99.51 120.21,98.18 120.21,98.18L119.65,32.82Z" style="fill:rgb(148,198,214);fill-rule:nonzero;"/>
            <path d="M114.3,91.87L114.46,65.48L119.93,65.48L120.21,98.17C120.21,98.17 115.86,96.48 114.3,91.87Z" style="fill:url(#_Linear2);fill-rule:nonzero;"/>
            <path d="M114.55,76.49L114.3,91.88C114.3,91.88 102.34,91.26 83.29,87.96C70.83,85.8 64,92.72 64,92.72L63.89,76.49L114.55,76.49Z" style="fill:url(#_Linear3);fill-rule:nonzero;"/>
            <path d="M13.45,76.49L13.7,91.88C13.7,91.88 25.66,91.26 44.71,87.96C57.17,85.8 64,92.72 64,92.72L63.89,76.49L13.45,76.49Z" style="fill:url(#_Linear4);fill-rule:nonzero;"/>
            <path d="M13.7,91.87L13.54,65.48L8.06,65.48L7.79,98.17C7.79,98.17 12.13,96.48 13.7,91.87Z" style="fill:url(#_Linear5);fill-rule:nonzero;"/>
            <path d="M115.65,27.32C115.65,27.32 89.11,22.33 77.46,21.68C66.5,21.07 64.25,26.65 64.03,27.32L63.99,27.32C63.76,26.65 61.51,21.08 50.55,21.68C38.9,22.33 12.36,27.32 12.36,27.32L11.18,91.72C11.18,91.72 42.78,85.1 50.43,85.96C58.08,86.82 64,92.72 64,92.72L64,92.71L64,92.72C64,92.72 69.93,86.82 77.58,85.96C85.23,85.1 116.83,91.72 116.83,91.72L115.65,27.32Z" style="fill:rgb(245,245,245);fill-rule:nonzero;"/>
            <path d="M53.62,21.69L48.22,85.89C49.07,85.87 49.82,85.89 50.42,85.96C58.06,86.81 64,92.72 64,92.72L63.83,27.32C63.83,27.32 62.53,22.2 53.62,21.69Z" style="fill:rgb(148,198,214);fill-opacity:0.26;fill-rule:nonzero;"/>
            <g opacity="0.5">
                <path d="M25.31,30.18C22.61,30.65 20.4,31.05 19.14,31.27C19.14,31.89 19.14,32.57 19.13,33.3C20.24,33.1 22.5,32.69 25.31,32.2L25.31,30.18Z" style="fill:rgb(117,117,117);fill-rule:nonzero;"/>
                <g>
                    <path d="M49.65,26.96L49.65,28.95C54.98,28.94 57.93,30.28 58.9,30.82C58.9,29.99 58.91,29.25 58.91,28.6C57.26,27.86 54.24,26.95 49.65,26.96Z" style="fill:rgb(117,117,117);fill-rule:nonzero;"/>
                    <path d="M45.31,27.21C40.98,27.65 34.95,28.57 29.65,29.45L29.65,31.48C34.91,30.61 40.95,29.68 45.31,29.22L45.31,27.21Z" style="fill:rgb(117,117,117);fill-rule:nonzero;"/>
                </g>
                <g>
                    <path d="M34.66,35.84C28.2,36.84 21.72,38 19.12,38.47L19.12,40.5C21.38,40.09 28.01,38.89 34.66,37.86L34.66,35.84Z" style="fill:rgb(117,117,117);fill-rule:nonzero;"/>
                    <path d="M46.69,34.28C44.58,34.45 41.89,34.79 39,35.19L39,37.21C41.95,36.79 44.71,36.45 46.85,36.27C54.03,35.68 57.82,37.44 58.88,38.04L58.88,35.81C56.92,34.94 52.99,33.76 46.69,34.28Z" style="fill:rgb(117,117,117);fill-rule:nonzero;"/>
                </g>
                <g>
                    <path d="M26.38,44.39C23.22,44.93 20.58,45.4 19.12,45.67L19.12,47.7C20.43,47.46 23.11,46.98 26.38,46.42L26.38,44.39Z" style="fill:rgb(117,117,117);fill-rule:nonzero;"/>
                    <path d="M58.88,43.04C56.93,42.16 52.99,40.96 46.63,41.49C42.56,41.82 36.33,42.75 30.72,43.67L30.72,45.7C36.38,44.77 42.7,43.83 46.8,43.49C54.1,42.89 57.9,44.72 58.88,45.29L58.88,43.04Z" style="fill:rgb(117,117,117);fill-rule:nonzero;"/>
                </g>
                <g>
                    <path d="M58.89,50.27C56.96,49.39 53,48.16 46.59,48.69C45.94,48.74 45.24,48.81 44.5,48.89L44.5,50.9C45.31,50.81 46.06,50.74 46.76,50.68C54.2,50.07 58,51.98 58.9,52.52C58.89,51.77 58.89,51.02 58.89,50.27Z" style="fill:rgb(117,117,117);fill-rule:nonzero;"/>
                    <path d="M40.15,49.43C32.33,50.5 22.59,52.23 19.13,52.86L19.13,54.89C22.18,54.33 32.15,52.54 40.15,51.44L40.15,49.43Z" style="fill:rgb(117,117,117);fill-rule:nonzero;"/>
                </g>
                <g>
                    <path d="M28.25,58.47C24.32,59.13 20.92,59.74 19.13,60.06L19.13,62.09C20.75,61.79 24.2,61.17 28.25,60.49L28.25,58.47Z" style="fill:rgb(117,117,117);fill-rule:nonzero;"/>
                    <path d="M58.9,57.51C56.99,56.63 53.01,55.37 46.54,55.9C42.94,56.2 37.66,56.95 32.6,57.76L32.6,59.78C37.71,58.96 43.08,58.19 46.7,57.89C54.33,57.26 58.14,59.3 58.9,59.76L58.9,57.51Z" style="fill:rgb(117,117,117);fill-rule:nonzero;"/>
                </g>
                <path d="M58.92,71.98C57.1,71.11 53.16,69.8 46.66,70.29L46.66,72.3C54.95,71.63 58.71,74.11 58.92,74.26L58.92,71.98Z" style="fill:rgb(117,117,117);fill-rule:nonzero;"/>
                <g>
                    <path d="M26.38,73.18C23.3,73.71 20.68,74.17 19.15,74.45L19.15,76.48C20.56,76.22 23.2,75.75 26.38,75.2L26.38,73.18Z" style="fill:rgb(117,117,117);fill-rule:nonzero;"/>
                    <path d="M30.72,72.46L30.72,74.49C34.6,73.86 38.77,73.22 42.32,72.77L42.32,70.75C38.79,71.19 34.62,71.82 30.72,72.46Z" style="fill:rgb(117,117,117);fill-rule:nonzero;"/>
                </g>
                <g>
                    <path d="M37.67,78.58C30.51,79.62 22.46,81.05 19.16,81.65L19.16,83.68C22.15,83.13 30.35,81.67 37.67,80.6L37.67,78.58Z" style="fill:rgb(117,117,117);fill-rule:nonzero;"/>
                    <path d="M58.93,79.22C57.12,78.34 53.09,76.97 46.37,77.52C45.1,77.62 43.62,77.79 42.01,77.99L42.01,80C43.68,79.79 45.22,79.62 46.53,79.51C55.09,78.8 58.85,81.46 58.89,81.48L58.94,81.42C58.94,80.73 58.94,80 58.93,79.22Z" style="fill:rgb(117,117,117);fill-rule:nonzero;"/>
                </g>
                <g>
                    <path d="M36.18,64.4C29.36,65.42 22.13,66.71 19.14,67.26L19.14,69.29C21.82,68.8 29.19,67.48 36.18,66.42L36.18,64.4Z" style="fill:rgb(117,117,117);fill-rule:nonzero;"/>
                    <path d="M58.91,64.74C57.03,63.86 53.04,62.56 46.48,63.1C44.8,63.24 42.75,63.48 40.53,63.78L40.53,65.8C42.82,65.49 44.93,65.24 46.65,65.1C54.53,64.45 58.34,66.64 58.92,67.01C58.91,66.27 58.91,65.51 58.91,64.74Z" style="fill:rgb(117,117,117);fill-rule:nonzero;"/>
                </g>
            </g>
            <g opacity="0.5">
                <g>
                    <path d="M88.41,29.71C96.69,30.81 107.51,32.77 110.45,33.3C110.45,32.56 110.45,31.89 110.44,31.27C107,30.64 96.47,28.76 88.4,27.69L88.4,29.71L88.41,29.71Z" style="fill:rgb(117,117,117);fill-rule:nonzero;"/>
                    <path d="M84.06,27.19C83.63,27.15 83.22,27.11 82.83,27.08C76.56,26.56 72.64,27.73 70.67,28.6C70.67,29.25 70.68,30 70.68,30.82C71.8,30.2 75.59,28.49 82.67,29.07C83.11,29.11 83.58,29.15 84.06,29.2L84.06,27.19Z" style="fill:rgb(117,117,117);fill-rule:nonzero;"/>
                </g>
                <g>
                    <path d="M102.36,39.08C106.03,39.71 109.07,40.25 110.46,40.51L110.46,38.48C108.89,38.19 105.91,37.66 102.36,37.06L102.36,39.08Z" style="fill:rgb(117,117,117);fill-rule:nonzero;"/>
                    <path d="M98.02,36.33C92.61,35.46 86.77,34.6 82.89,34.28C76.59,33.76 72.66,34.94 70.69,35.81L70.69,38.04C71.75,37.44 75.54,35.68 82.72,36.27C86.63,36.59 92.56,37.47 98.01,38.35L98.01,36.33L98.02,36.33Z" style="fill:rgb(117,117,117);fill-rule:nonzero;"/>
                </g>
                <path d="M97.18,43.39L97.18,45.41C102.99,46.34 108.4,47.32 110.46,47.7L110.46,45.67C108.13,45.25 102.82,44.3 97.18,43.39Z" style="fill:rgb(117,117,117);fill-rule:nonzero;"/>
                <g>
                    <path d="M88.4,49.3C86.39,49.04 84.53,48.82 82.99,48.7C76.58,48.17 72.62,49.4 70.69,50.28L70.69,52.53C71.59,52 75.4,50.08 82.83,50.69C84.41,50.82 86.33,51.04 88.4,51.32L88.4,49.3Z" style="fill:rgb(117,117,117);fill-rule:nonzero;"/>
                    <path d="M92.75,49.91L92.75,51.93C100,53.01 107.81,54.42 110.45,54.9L110.45,52.87C107.47,52.32 99.82,50.96 92.75,49.91Z" style="fill:rgb(117,117,117);fill-rule:nonzero;"/>
                </g>
                <g>
                    <path d="M93.63,57.24C89.68,56.64 85.85,56.13 83.05,55.9C76.57,55.37 72.59,56.63 70.69,57.51L70.69,59.77C71.45,59.3 75.26,57.27 82.89,57.9C85.72,58.13 89.63,58.66 93.64,59.27L93.64,57.24L93.63,57.24Z" style="fill:rgb(117,117,117);fill-rule:nonzero;"/>
                    <path d="M97.97,57.92L97.97,59.95C103.41,60.83 108.39,61.73 110.44,62.1L110.44,60.07C108.16,59.65 103.26,58.77 97.97,57.92Z" style="fill:rgb(117,117,117);fill-rule:nonzero;"/>
                </g>
                <path d="M105.04,66.3L105.04,68.33C107.4,68.74 109.33,69.09 110.43,69.29L110.43,67.26C109.23,67.04 107.33,66.7 105.04,66.3Z" style="fill:rgb(117,117,117);fill-rule:nonzero;"/>
                <g>
                    <path d="M89.29,71.01C87,70.7 84.88,70.45 83.16,70.31C76.52,69.76 72.51,71.1 70.67,71.98L70.67,74.26C70.88,74.11 74.66,71.61 83.01,72.3C84.77,72.44 86.95,72.7 89.31,73.02L89.31,71.01L89.29,71.01Z" style="fill:rgb(117,117,117);fill-rule:nonzero;"/>
                    <path d="M93.63,71.63L93.63,73.65C100.51,74.69 107.73,75.99 110.43,76.48L110.43,74.45C107.43,73.91 100.35,72.65 93.63,71.63Z" style="fill:rgb(117,117,117);fill-rule:nonzero;"/>
                </g>
                <g>
                    <path d="M97.18,79.38C92.11,78.57 86.81,77.81 83.21,77.51C76.48,76.96 72.46,78.34 70.65,79.21L70.65,81.41L70.7,81.47C70.73,81.45 74.49,78.79 83.06,79.5C86.69,79.8 92.08,80.58 97.2,81.4L97.2,79.38L97.18,79.38Z" style="fill:rgb(117,117,117);fill-rule:nonzero;"/>
                    <path d="M101.53,80.1L101.53,82.13C105.42,82.78 108.74,83.38 110.42,83.69L110.42,81.66C108.59,81.32 105.31,80.73 101.53,80.1Z" style="fill:rgb(117,117,117);fill-rule:nonzero;"/>
                </g>
                <g>
                    <path d="M82.93,63.09C76.47,62.58 72.53,63.87 70.67,64.74L70.67,67.01C71.25,66.64 75.05,64.45 82.93,65.1L82.93,63.09Z" style="fill:rgb(117,117,117);fill-rule:nonzero;"/>
                    <path d="M87.28,63.55L87.28,65.56C91.4,66.08 96.35,66.86 100.7,67.58L100.7,65.55C96.32,64.83 91.37,64.06 87.28,63.55Z" style="fill:rgb(117,117,117);fill-rule:nonzero;"/>
                </g>
                <g>
                    <path d="M79.72,41.37C75.24,41.4 72.29,42.32 70.7,43.04L70.7,45.28C71.54,44.8 74.41,43.41 79.72,43.36L79.72,41.37Z" style="fill:rgb(117,117,117);fill-rule:nonzero;"/>
                    <path d="M84.06,41.59L84.06,43.6C86.55,43.85 89.64,44.27 92.83,44.74L92.83,42.72C89.63,42.24 86.55,41.83 84.06,41.59Z" style="fill:rgb(117,117,117);fill-rule:nonzero;"/>
                </g>
            </g>
            <path d="M71.16,98.45C70.04,98.35 69.01,99.04 68.65,100.11C68.11,101.74 66.85,103.87 64,103.87C61.12,103.87 59.85,101.73 59.3,100.1C58.94,99.05 57.93,98.37 56.82,98.46L56.43,98.49L56.44,98.81C56.44,102.98 59.82,106.36 63.99,106.36C68.16,106.36 71.54,102.98 71.54,98.81C71.54,98.71 71.53,98.48 71.53,98.48L71.16,98.45Z" style="fill:rgb(97,97,97);fill-rule:nonzero;"/>
        </g>
    </g>
    <defs>
        <linearGradient id="_Linear1" x1="0" y1="0" x2="1" y2="0" gradientUnits="userSpaceOnUse" gradientTransform="matrix(518.135,0,0,518.614,-9.92066,252.088)"><stop offset="0" style="stop-color:rgb(83,44,46);stop-opacity:1"/><stop offset="0.49" style="stop-color:rgb(105,64,56);stop-opacity:1"/><stop offset="1" style="stop-color:rgb(169,121,84);stop-opacity:1"/></linearGradient>
        <linearGradient id="_Linear2" x1="0" y1="0" x2="1" y2="0" gradientUnits="userSpaceOnUse" gradientTransform="matrix(0.2472,-17.3026,17.3026,0.2472,117.244,88.2008)"><stop offset="0" style="stop-color:rgb(130,174,192);stop-opacity:1"/><stop offset="0.27" style="stop-color:rgb(130,174,192);stop-opacity:1"/><stop offset="1" style="stop-color:rgb(130,174,192);stop-opacity:0"/></linearGradient>
        <linearGradient id="_Linear3" x1="0" y1="0" x2="1" y2="0" gradientUnits="userSpaceOnUse" gradientTransform="matrix(42.8119,0,0,42.8119,69.917,84.601)"><stop offset="0" style="stop-color:rgb(47,120,137);stop-opacity:1"/><stop offset="1" style="stop-color:rgb(130,174,192);stop-opacity:1"/></linearGradient>
        <linearGradient id="_Linear4" x1="0" y1="0" x2="1" y2="0" gradientUnits="userSpaceOnUse" gradientTransform="matrix(-42.7159,5.23119e-15,-5.23119e-15,-42.7159,57.9793,84.601)"><stop offset="0" style="stop-color:rgb(47,120,137);stop-opacity:1"/><stop offset="1" style="stop-color:rgb(130,174,192);stop-opacity:1"/></linearGradient>
        <linearGradient id="_Linear5" x1="0" y1="0" x2="1" y2="0" gradientUnits="userSpaceOnUse" gradientTransform="matrix(-0.2472,-17.3027,17.3027,-0.2472,10.7527,88.2008)"><stop offset="0" style="stop-color:rgb(130,174,192);stop-opacity:1"/><stop offset="0.27" style="stop-color:rgb(130,174,192);stop-opacity:1"/><stop offset="1" style="stop-color:rgb(130,174,192);stop-opacity:0"/></linearGradient>
    </defs>
</svg>
